/* XPM */
static char * folder_new_xpm[] = {
"16 16 143 2",
"  	c None",
". 	c #CC9200",
"+ 	c #B98600",
"@ 	c #B78400",
"# 	c #B58200",
"$ 	c #A77200",
"% 	c #FF4D10",
"& 	c #FF8134",
"* 	c #FF3300",
"= 	c #FF9A4D",
"- 	c #BE8B00",
"; 	c #FAF6ED",
"> 	c #FFFFFF",
", 	c #B17E00",
"' 	c #FF9131",
") 	c #FFF85F",
"! 	c #FFDF64",
"~ 	c #F85F0F",
"{ 	c #DD6A00",
"] 	c #C28700",
"^ 	c #C09014",
"/ 	c #FF9242",
"( 	c #FEEA50",
"_ 	c #FFCD00",
": 	c #FEEB3A",
"< 	c #FB7B28",
"[ 	c #FA9371",
"} 	c #FCF1DA",
"| 	c #FFFFF1",
"1 	c #FFFFE6",
"2 	c #FFFFDE",
"3 	c #FFFFF3",
"4 	c #AF7C00",
"5 	c #FF3200",
"6 	c #FCDB53",
"7 	c #FFE51D",
"8 	c #FFEC59",
"9 	c #FDB155",
"0 	c #F2AA5D",
"a 	c #E0C267",
"b 	c #DFC665",
"c 	c #DBC25F",
"d 	c #FFFFD3",
"e 	c #FFFFE7",
"f 	c #AC7900",
"g 	c #C38F02",
"h 	c #C88A0F",
"i 	c #EF9E58",
"j 	c #F48329",
"k 	c #FEB257",
"l 	c #FC9C3F",
"m 	c #F96C33",
"n 	c #F9C874",
"o 	c #FFFA9C",
"p 	c #FFF894",
"q 	c #E7D265",
"r 	c #F9F4AA",
"s 	c #FFFFDA",
"t 	c #AA7700",
"u 	c #BE8B01",
"v 	c #FAF4C9",
"w 	c #FFE9D0",
"x 	c #D26500",
"y 	c #FF9272",
"z 	c #FFD17A",
"A 	c #FFCF7A",
"B 	c #FFF390",
"C 	c #FFF78C",
"D 	c #FFF685",
"E 	c #FFF57E",
"F 	c #DFCB5D",
"G 	c #FFFFD1",
"H 	c #A77400",
"I 	c #BC8A04",
"J 	c #EADCAB",
"K 	c #FFFFE5",
"L 	c #BB8300",
"M 	c #FFF1C3",
"N 	c #FFF588",
"O 	c #FFF988",
"P 	c #FFF682",
"Q 	c #FFF47A",
"R 	c #FFF373",
"S 	c #FFF06C",
"T 	c #E3C94C",
"U 	c #FFFFAA",
"V 	c #A57200",
"W 	c #BA8700",
"X 	c #CBA643",
"Y 	c #FFFFDD",
"Z 	c #FFFCC0",
"` 	c #FFF477",
" .	c #FFF170",
"..	c #FFEF6A",
"+.	c #FFEC63",
"@.	c #FFEA5C",
"#.	c #FFE958",
"$.	c #FEE456",
"%.	c #EDDA64",
"&.	c #A26F00",
"*.	c #B98203",
"=.	c #FBF5B6",
"-.	c #B48100",
";.	c #FFF7B0",
">.	c #FFEC5E",
",.	c #FFE752",
"'.	c #FFE44B",
").	c #FFE245",
"!.	c #FFE045",
"~.	c #FFE246",
"{.	c #F0CF3F",
"].	c #A06D00",
"^.	c #B88608",
"/.	c #C69F3B",
"(.	c #B27F00",
"_.	c #FFF19F",
":.	c #FFE140",
"<.	c #FFE03A",
"[.	c #FFE034",
"}.	c #FFE233",
"|.	c #EED02D",
"1.	c #DDB120",
"2.	c #B6860C",
"3.	c #A16E00",
"4.	c #B88A18",
"5.	c #B07D00",
"6.	c #FFEF90",
"7.	c #FFE030",
"8.	c #FFE229",
"9.	c #EECB1D",
"0.	c #D2A40F",
"a.	c #B78505",
"b.	c #AC7700",
"c.	c #A87100",
"d.	c #BE952E",
"e.	c #AD7A00",
"f.	c #F7D94C",
"g.	c #D2A30C",
"h.	c #B48103",
"i.	c #AC7500",
"j.	c #AA7200",
"k.	c #A47100",
"l.	c #A47000",
"                                ",
"                    . + @ # $   ",
"        % & * =     - ; > > ,   ",
"      * ' ) ! ~ { ] ^ > > > ,   ",
"      / ( _ : < [ } | 1 2 3 4   ",
"      5 6 7 8 9 0 a b c d e f   ",
"  g h i j k l m n o p q r s t   ",
"  u v w x y z A B C D E F G H   ",
"  I J K L M N O P Q R S T U V   ",
"  W X Y @ Z `  ...+.@.#.$.%.&.  ",
"    *.=.-.;.>.#.,.'.).!.~.{.].  ",
"    ^./.(._.~.:.<.[.}.|.1.2.3.  ",
"      4.5.6.7.8.9.0.a.b.c.      ",
"      d.e.f.g.h.i.j.            ",
"        ].k.l.                  ",
"                                "};
