/* XPM */
static char * text_code_xpm[] = {
"16 16 71 1",
" 	c None",
".	c #90BBEE",
"+	c #96C6F9",
"@	c #94C2F5",
"#	c #92BEF1",
"$	c #90BAED",
"%	c #8EB6E9",
"&	c #8CB2E5",
"*	c #8AAEE1",
"=	c #88AADD",
"-	c #86A6D9",
";	c #84A2D5",
">	c #6E77AA",
",	c #93C0F3",
"'	c #D5E8FD",
")	c #FFFFFF",
"!	c #CEDAEE",
"~	c #B8DCFF",
"{	c #C0E0FF",
"]	c #C7E4FF",
"^	c #CEE7FF",
"/	c #D6EBFF",
"(	c #DAEDFF",
"_	c #DDEEFF",
":	c #E1F0FF",
"<	c #F9F9F9",
"[	c #7E96C9",
"}	c #7A8999",
"|	c #7E8C99",
"1	c #808D99",
"2	c #858F99",
"3	c #899199",
"4	c #8B9299",
"5	c #8E9499",
"6	c #ECF6FF",
"7	c #7D93C6",
"8	c #D2E9FF",
"9	c #E8F4FF",
"0	c #F3F9FF",
"a	c #F7FBFF",
"b	c #FAFAFA",
"c	c #7B8FC2",
"d	c #879099",
"e	c #909499",
"f	c #FBFDFF",
"g	c #FCFCFC",
"h	c #798BBE",
"i	c #F0F7FF",
"j	c #FEFEFE",
"k	c #7787BA",
"l	c #E5F2FF",
"m	c #949799",
"n	c #999999",
"o	c #7584B7",
"p	c #7380B3",
"q	c #87A9DC",
"r	c #707BAE",
"s	c #84A4D7",
"t	c #6E76A9",
"u	c #829FD2",
"v	c #6C72A5",
"w	c #809BCE",
"x	c #C4C7DB",
"y	c #7F98CB",
"z	c #7C92C5",
"A	c #7A8EC1",
"B	c #788ABD",
"C	c #7686B9",
"D	c #7482B5",
"E	c #727EB1",
"F	c #707AAD",
"                ",
"  .+@#$%&*=-;>  ",
" ,'))))))))))!> ",
" +)~{]^/(_:::<[ ",
" @){}|1234566<7 ",
" #)]8(:960aaabc ",
" $)^/d4eaf)))gh ",
" %)/_9ia)))))jk ",
" &)(l6mnnnnnn)o ",
" *)_90f)))))))p ",
" q):6mnn))))))r ",
" s):6a))))))))t ",
" u):5mn)))))))v ",
" w!<<bgj)))))xv ",
"  y[zABCDEFtvv  ",
"                "};
